<?xml version="1.0" encoding="UTF-8" standalone="no"?>
<svg
   version="1.1"
   width="440"
   height="80"
   style="clip-rule:evenodd;fill-rule:evenodd;image-rendering:optimizeQuality;shape-rendering:geometricPrecision;text-rendering:geometricPrecision"
   id="svg43"
   sodipodi:docname="eco_sixtem_logo.svg"
   inkscape:version="1.3.2 (091e20e, 2023-11-25)"
   xmlns:inkscape="http://www.inkscape.org/namespaces/inkscape"
   xmlns:sodipodi="http://sodipodi.sourceforge.net/DTD/sodipodi-0.dtd"
   xmlns="http://www.w3.org/2000/svg"
   xmlns:svg="http://www.w3.org/2000/svg">
  <defs
     id="defs43" />
  <sodipodi:namedview
     id="namedview43"
     pagecolor="#ffffff"
     bordercolor="#000000"
     borderopacity="0.25"
     inkscape:showpageshadow="2"
     inkscape:pageopacity="0.0"
     inkscape:pagecheckerboard="0"
     inkscape:deskcolor="#d1d1d1"
     inkscape:zoom="1.0511364"
     inkscape:cx="235.45946"
     inkscape:cy="44.713513"
     inkscape:window-width="1496"
     inkscape:window-height="905"
     inkscape:window-x="0"
     inkscape:window-y="34"
     inkscape:window-maximized="1"
     inkscape:current-layer="svg43" />
  <g
     id="g44"
     transform="matrix(0.081,0,0,0.081,4.4993998,-0.09162069)">
    <g
       id="g1">
      <path
         style="opacity:0.997"
         fill="#e42312"
         d="m 2932.5,219.5 c 2.52,0.754 5.19,1.42 8,2 0.61,-0.124 0.94,-0.457 1,-1 8.83,0.519 17.5,1.853 26,4 2.74,2.633 5.91,3.633 9.5,3 1.03,1.645 2.2,1.978 3.5,1 0.69,0.525 1.19,1.192 1.5,2 0.72,-0.951 1.55,-1.117 2.5,-0.5 -1.2,0.654 -1.2,1.154 0,1.5 0.79,-0.431 1.63,-0.765 2.5,-1 3.4,1.456 6.9,2.456 10.5,3 0.33,0 0.67,0 1,0 1.79,2.066 3.96,3.732 6.5,5 0.67,-0.752 1.5,-1.086 2.5,-1 1.93,1.793 4.26,2.793 7,3 30.66,13.99 56.33,34.324 77,61 -0.07,1.527 0.59,2.527 2,3 27.98,32.981 55.98,65.981 84,99 30.31,-36.313 60.98,-72.313 92,-108 1.41,-0.473 2.07,-1.473 2,-3 17.85,-20.53 38.85,-36.863 63,-49 4.34,-0.337 8,-2.004 11,-5 6.47,-3.826 13.47,-6.493 21,-8 1.32,-0.17 2.49,0.163 3.5,1 0.61,-1.981 1.61,-2.315 3,-1 3.27,-2.189 6.77,-3.856 10.5,-5 10.08,-2.46 20.42,-4.293 31,-5.5 55,-0.5 110,-0.667 165,-0.5 0,36 0,72 0,108 -51,-0.167 -102,0 -153,0.5 -15.43,1.024 -30.1,4.857 -44,11.5 -1.53,-0.073 -2.53,0.594 -3,2 -8.22,5.37 -16.05,11.37 -23.5,18 -36.2,42.574 -72.03,85.407 -107.5,128.5 1.15,1.981 2.48,3.814 4,5.5 -0.07,1.527 0.59,2.527 2,3 34.34,39.516 68.18,79.516 101.5,120 19.59,18.985 43.09,29.485 70.5,31.5 51,0.5 102,0.667 153,0.5 0,36 0,72 0,108 -56.01,0.304 -112.01,-0.029 -168,-1 -3.98,-1.971 -8.31,-3.138 -13,-3.5 -3.68,-0.418 -7.34,-0.918 -11,-1.5 -1.23,0.02 -2.23,0.353 -3,1 -0.67,0 -1,-0.333 -1,-1 -3.35,-1.758 -7.02,-2.758 -11,-3 -21.07,-5.564 -40.4,-14.564 -58,-27 -0.47,-1.406 -1.47,-2.073 -3,-2 -15.42,-9.901 -29.25,-21.901 -41.5,-36 -30.67,-36.838 -61.51,-73.505 -92.5,-110 -32.31,38.813 -64.81,77.48 -97.5,116 -10.49,11.006 -21.99,20.672 -34.5,29 -1.08,0.039 -2.08,0.373 -3,1 -1.21,-0.774 -1.21,-1.607 0,-2.5 -0.67,-0.667 -1.33,-0.667 -2,0 -0.64,1.707 -0.64,3.54 0,5.5 -5.7,3.853 -11.7,7.186 -18,10 -4.39,-0.643 -7.39,1.023 -9,5 -0.33,0 -0.67,0 -1,0 -2.05,-0.098 -3.72,0.569 -5,2 -4.62,2.766 -9.62,4.766 -15,6 -3.66,0.223 -7,1.223 -10,3 -14.82,4.862 -30.16,7.695 -46,8.5 -53.67,0.5 -107.33,0.667 -161,0.5 0,-36 0,-72 0,-108 54.01,0.299 108.01,-0.035 162,-1 0.06,0.543 0.39,0.876 1,1 3.15,-0.266 5.82,-1.266 8,-3 22.22,-5.577 41.22,-16.577 57,-33 1.41,-0.473 2.07,-1.473 2,-3 19.3,-24.263 39.3,-47.93 60,-71 1.41,-0.473 2.07,-1.473 2,-3 12.75,-16.253 26.08,-32.087 40,-47.5 -35.17,-41.833 -70.33,-83.667 -105.5,-125.5 -7.48,-7.666 -15.65,-14.333 -24.5,-20 -0.47,-1.406 -1.47,-2.073 -3,-2 -10.52,-5.061 -21.52,-8.728 -33,-11 -0.42,-0.722 -1.08,-1.222 -2,-1.5 -3.32,-0.498 -6.65,-0.665 -10,-0.5 -51.33,0 -102.67,0 -154,0 0,-36 0,-72 0,-108 52.33,0 104.67,0 157,0 z"
         id="path1" />
    </g>
    <g
       id="g2">
      <path
         style="opacity:0.267"
         fill="#dd958c"
         d="m 2932.5,219.5 c 3.11,-0.236 6.11,0.097 9,1 -0.06,0.543 -0.39,0.876 -1,1 -2.81,-0.58 -5.48,-1.246 -8,-2 z"
         id="path2" />
    </g>
    <g
       id="g3">
      <path
         style="opacity:0.741"
         fill="#d76b5f"
         d="m 2290.5,219.5 c -2.83,0.843 -5.83,1.509 -9,2 -0.92,-0.043 -1.58,-0.376 -2,-1 3.56,-0.923 7.23,-1.256 11,-1 z"
         id="path3" />
    </g>
    <g
       id="g4">
      <path
         style="opacity:0.999"
         fill="#e42412"
         d="m 2290.5,219.5 c 51.67,0 103.33,0 155,0 0,36 0,72 0,108 -51,-0.167 -102,0 -153,0.5 -32.09,2.295 -58.26,15.795 -78.5,40.5 -61.36,73.524 -122.86,146.857 -184.5,220 -0.32,-1.548 -1.32,-2.215 -3,-2 0,1 0,2 0,3 -1,0 -2,0 -3,0 0,1.333 0,2.667 0,4 -2,0.333 -4,0.667 -6,1 -0.08,1.43 0.25,2.764 1,4 -1.92,1.571 -2.92,3.571 -3,6 -19.96,24.631 -40.3,48.965 -61,73 0.13,-0.876 -0.2,-1.543 -1,-2 -0.78,1.229 -1.28,2.562 -1.5,4 -0.33,-0.667 -0.67,-1.333 -1,-2 -1.64,2.91 -3.64,5.577 -6,8 -1.15,-1.997 -2.65,-2.33 -4.5,-1 0.81,1.571 1.14,3.238 1,5 -1,0 -2,0 -3,0 0.15,1.052 -0.02,2.052 -0.5,3 -1.24,-1.921 -2.74,-2.254 -4.5,-1 1,0.667 2,1.333 3,2 -0.81,1.571 -1.14,3.238 -1,5 -16.12,15.564 -34.45,27.897 -55,37 -2.4,0.366 -4.74,1.033 -7,2 -0.67,-0.167 -1.33,-0.333 -2,-0.5 1,-0.333 2,-0.667 3,-1 -2.8,-0.755 -5.47,-0.422 -8,1 1.44,0.219 2.77,0.719 4,1.5 -1.4,1.021 -2.73,2.021 -4,3 -2.39,1.52 -5.06,2.52 -8,3 -3.66,0.223 -7,1.223 -10,3 -2.48,1.295 -5.15,2.295 -8,3 -2.51,-1.367 -4.85,-1.034 -7,1 -10.16,2.396 -20.49,3.896 -31,4.5 -53.67,0.5 -107.33,0.667 -161,0.5 0,-36 0,-72 0,-108 51.33,0.167 102.67,0 154,-0.5 7.43,-0.628 14.77,-1.795 22,-3.5 0.06,0.543 0.39,0.876 1,1 3.27,-0.969 6.27,-2.302 9,-4 15.92,-6.554 29.75,-16.22 41.5,-29 87,-104 174,-208 261,-312 30.75,-37.465 69.58,-62.465 116.5,-75 2.45,1.145 4.79,0.812 7,-1 0.33,0 0.67,0 1,0 3.35,0.165 6.68,-0.002 10,-0.5 1.57,-0.608 2.9,-1.442 4,-2.5 3.65,-0.442 7.32,-0.776 11,-1 0.42,0.624 1.08,0.957 2,1 3.17,-0.491 6.17,-1.157 9,-2 z"
         id="path4" />
    </g>
    <g
       id="g5">
      <path
         style="opacity:1"
         fill="#de503c"
         d="m 2268.5,221.5 c -1.1,1.058 -2.43,1.892 -4,2.5 -3.32,0.498 -6.65,0.665 -10,0.5 4.49,-1.234 9.16,-2.234 14,-3 z"
         id="path5" />
    </g>
    <g
       id="g6">
      <path
         style="opacity:0.99"
         fill="#e32312"
         d="m 2554.5,219.5 c 37.33,0 74.67,0 112,0 0,179 0,358 0,537 -37.33,0 -74.67,0 -112,0 0,-179 0,-358 0,-537 z"
         id="path6" />
    </g>
    <g
       id="g7">
      <path
         style="opacity:0.898"
         fill="#e16c5d"
         d="m 2253.5,224.5 c -2.21,1.812 -4.55,2.145 -7,1 2.31,-0.493 4.64,-0.826 7,-1 z"
         id="path7" />
    </g>
    <g
       id="g8">
      <path
         style="opacity:1"
         fill="#e24936"
         d="m 2967.5,224.5 c 10.46,1.823 20.46,4.823 30,9 -3.6,-0.544 -7.1,-1.544 -10.5,-3 -0.87,0.235 -1.71,0.569 -2.5,1 -1.2,-0.346 -1.2,-0.846 0,-1.5 -0.95,-0.617 -1.78,-0.451 -2.5,0.5 -0.31,-0.808 -0.81,-1.475 -1.5,-2 -1.3,0.978 -2.47,0.645 -3.5,-1 -3.59,0.633 -6.76,-0.367 -9.5,-3 z"
         id="path8" />
    </g>
    <g
       id="g9">
      <path
         style="opacity:1"
         fill="#8b8b8b"
         d="m 740.5,229.5 c 46.738,-1.487 90.738,8.68 132,30.5 14.286,8.609 27.119,19.109 38.5,31.5 9.979,13.525 12.979,28.525 9,45 -10.732,24.624 -29.565,35.124 -56.5,31.5 -3.393,-0.798 -6.726,-1.798 -10,-3 -14.169,-8.586 -28.503,-16.919 -43,-25 -69.474,-25.257 -128.974,-10.423 -178.5,44.5 -38.106,48.854 -49.773,103.52 -35,164 17.596,60.596 56.43,100.429 116.5,119.5 39.044,9.881 76.044,4.881 111,-15 10.806,-8.738 22.806,-15.405 36,-20 28.131,-5.52 47.964,4.646 59.5,30.5 4.504,18.492 0.504,34.826 -12,49 C 878.331,740.752 843.164,758.586 802.5,766 698.637,781.166 612.471,749.333 544,670.5 483.714,592.468 468.38,506.135 498,411.5 533.001,321.166 597.168,262.999 690.5,237 c 16.604,-3.937 33.271,-6.437 50,-7.5 z"
         id="path9" />
    </g>
    <g
       id="g10">
      <path
         style="opacity:0.999"
         fill="#8b8b8b"
         d="m 1270.5,229.5 c 91.72,0.609 165.88,36.942 222.5,109 44.5,63.666 60.5,133.999 48,211 -19.92,94.908 -74.09,162.074 -162.5,201.5 -98.7,35.995 -188.7,20.995 -270,-45 -67.09,-60.731 -97.92,-136.565 -92.5,-227.5 11.2,-104.286 63.7,-179.453 157.5,-225.5 31.05,-13.68 63.38,-21.514 97,-23.5 z m -3,98 c 71.77,-2.054 123.27,28.946 154.5,93 20.67,53.003 20.67,106.003 0,159 -32.06,65.962 -84.9,96.795 -158.5,92.5 -68.99,-10.654 -113.49,-49.487 -133.5,-116.5 -12.14,-46.354 -9.14,-91.687 9,-136 26,-54.16 68.83,-84.826 128.5,-92 z"
         id="path10" />
    </g>
    <g
       id="g11">
      <path
         style="opacity:1"
         fill="#e24f3e"
         d="m 3383.5,225.5 c -3.73,1.144 -7.23,2.811 -10.5,5 -1.39,-1.315 -2.39,-0.981 -3,1 -1.01,-0.837 -2.18,-1.17 -3.5,-1 5.28,-2.646 10.95,-4.313 17,-5 z"
         id="path11" />
    </g>
    <g
       id="g12">
      <path
         style="opacity:0.996"
         fill="#8b8b8b"
         d="m 4749.5,232.5 c 14.17,-0.333 26.83,3.833 38,12.5 6.57,5.904 12.41,12.404 17.5,19.5 61.66,111.989 123.83,223.656 186.5,335 63.25,-113.495 126.75,-226.828 190.5,-340 11.79,-15.727 27.45,-24.727 47,-27 25.62,2.284 41.28,15.95 47,41 0.67,149.667 0.67,299.333 0,449 -9.62,32.957 -31.45,47.457 -65.5,43.5 -23.22,-7.932 -36.39,-24.098 -39.5,-48.5 -0.66,-85.387 -0.66,-170.721 0,-256 -46.49,88.318 -93.49,176.318 -141,264 -17.64,20.286 -38.47,24.453 -62.5,12.5 -7.17,-4.5 -13,-10.333 -17.5,-17.5 -46.28,-86.238 -92.28,-172.571 -138,-259 -0.01,89.043 -0.68,178.043 -2,267 -11.41,30.791 -33.25,42.958 -65.5,36.5 -20.06,-7.392 -32.23,-21.559 -36.5,-42.5 -0.67,-150 -0.67,-300 0,-450 4.9,-22.738 18.74,-36.071 41.5,-40 z"
         id="path12" />
    </g>
    <g
       id="g13">
      <path
         style="opacity:0.994"
         fill="#8b8b8b"
         d="m 147.5,324.5 c -0.999,43.83 -1.332,87.83 -1,132 45.667,0 91.333,0 137,0 25.751,2.585 40.085,16.751 43,42.5 -2.925,25.758 -17.258,39.925 -43,42.5 -45.667,0 -91.333,0 -137,0 -0.332,44.836 0.001,89.503 1,134 73.334,-0.167 146.667,0 220,0.5 22.914,6.081 35.581,20.914 38,44.5 -2.88,25.379 -16.88,40.212 -42,44.5 -89.333,0.667 -178.667,0.667 -268,0 C 67.8232,761.325 50.9899,745.825 45,718.5 44.3333,572.833 44.3333,427.167 45,281.5 50.0576,256.776 64.8909,241.609 89.5,236 c 90.333,-0.667 180.667,-0.667 271,0 25.516,7.203 37.683,24.036 36.5,50.5 -4.424,20.09 -16.59,32.59 -36.5,37.5 -70.999,0.5 -141.999,0.667 -213,0.5 z"
         id="path13" />
    </g>
    <g
       id="g14">
      <path
         style="opacity:1"
         fill="#e24f3e"
         d="m 2998.5,233.5 c 3.41,0.575 6.41,1.908 9,4 -1,-0.086 -1.83,0.248 -2.5,1 -2.54,-1.268 -4.71,-2.934 -6.5,-5 z"
         id="path14" />
    </g>
    <g
       id="g15">
      <path
         style="opacity:0.998"
         fill="#8b8b8b"
         d="m 3748.5,235.5 c 111.33,-0.167 222.67,0 334,0.5 25.69,8.036 37.52,25.536 35.5,52.5 -4.83,19.5 -17,31.667 -36.5,36.5 -38.33,0.5 -76.67,0.667 -115,0.5 0.17,133 0,266 -0.5,399 -5.93,27.436 -22.76,42.769 -50.5,46 -29.18,-3.007 -46.34,-19.007 -51.5,-48 -0.5,-132.333 -0.67,-264.666 -0.5,-397 -38,0.167 -76,0 -114,-0.5 -27.8,-7.779 -39.97,-25.945 -36.5,-54.5 5.79,-17.955 17.62,-29.621 35.5,-35 z"
         id="path15" />
    </g>
    <g
       id="g16">
      <path
         style="opacity:0.992"
         fill="#8b8b8b"
         d="m 4469.5,541.5 c -45.67,0 -91.33,0 -137,0 -0.33,44.836 0,89.503 1,134 73.33,-0.167 146.67,0 220,0.5 22.94,6.108 35.61,20.941 38,44.5 -2.7,24.867 -16.36,39.7 -41,44.5 -89.67,0.667 -179.33,0.667 -269,0 -29.5,-4.17 -46.34,-21.003 -50.5,-50.5 -0.67,-142.667 -0.67,-285.333 0,-428 1.94,-19.404 11.11,-34.238 27.5,-44.5 5.45,-2.595 11.12,-4.595 17,-6 90.67,-0.667 181.33,-0.667 272,0 25.93,8.043 37.76,25.543 35.5,52.5 -5.17,18.5 -17,30.333 -35.5,35.5 -71.33,0.5 -142.67,0.667 -214,0.5 0,43.667 0,87.333 0,131 45.67,-0.167 91.33,0 137,0.5 19.46,2.308 32.96,12.474 40.5,30.5 4.65,25.865 -5.18,43.699 -29.5,53.5 -3.92,1.156 -7.92,1.656 -12,1.5 z"
         id="path16" />
    </g>
    <g
       id="g17">
      <path
         style="opacity:0.827"
         fill="#e26a60"
         d="m 3007.5,237.5 c 2.74,0.207 5.07,1.207 7,3 -2.74,-0.207 -5.07,-1.207 -7,-3 z"
         id="path17" />
    </g>
    <g
       id="g18">
      <path
         style="opacity:1"
         fill="#de4c39"
         d="m 3345.5,238.5 c -3,2.996 -6.66,4.663 -11,5 3.24,-2.451 6.91,-4.118 11,-5 z"
         id="path18" />
    </g>
    <g
       id="g19">
      <path
         style="opacity:0.875"
         fill="#e37364"
         d="m 3271.5,292.5 c 0.07,1.527 -0.59,2.527 -2,3 -0.07,-1.527 0.59,-2.527 2,-3 z"
         id="path19" />
    </g>
    <g
       id="g20">
      <path
         style="opacity:0.682"
         fill="#e58270"
         d="m 3091.5,301.5 c 1.41,0.473 2.07,1.473 2,3 -1.41,-0.473 -2.07,-1.473 -2,-3 z"
         id="path20" />
    </g>
    <g
       id="g21">
      <path
         style="opacity:0.659"
         fill="#e27564"
         d="m 2929.5,327.5 c 3.35,-0.165 6.68,0.002 10,0.5 0.92,0.278 1.58,0.778 2,1.5 -4.16,-0.456 -8.16,-1.122 -12,-2 z"
         id="path21" />
    </g>
    <g
       id="g22">
      <path
         style="opacity:0.00799997"
         fill="#e88f81"
         d="m 3382.5,339.5 c -0.47,1.406 -1.47,2.073 -3,2 0.47,-1.406 1.47,-2.073 3,-2 z"
         id="path22" />
    </g>
    <g
       id="g23">
      <path
         style="opacity:0.384"
         fill="#e0716b"
         d="m 2974.5,340.5 c 1.53,-0.073 2.53,0.594 3,2 -1.53,0.073 -2.53,-0.594 -3,-2 z"
         id="path23" />
    </g>
    <g
       id="g24">
      <path
         style="opacity:0.114"
         fill="#bfbfbf"
         d="m 147.5,324.5 c 0,43.667 0,87.333 0,131 45.503,-0.332 90.836,10e-4 136,1 -45.667,0 -91.333,0 -137,0 -0.332,-44.17 0.001,-88.17 1,-132 z"
         id="path24" />
    </g>
    <g
       id="g25">
      <path
         style="opacity:0.82"
         fill="#ec8378"
         d="m 3252.5,493.5 c 1.41,0.473 2.07,1.473 2,3 -1.41,-0.473 -2.07,-1.473 -2,-3 z"
         id="path25" />
    </g>
    <g
       id="g26">
      <path
         style="opacity:0.827"
         fill="#ed816c"
         d="m 3067.5,535.5 c 0.07,1.527 -0.59,2.527 -2,3 -0.07,-1.527 0.59,-2.527 2,-3 z"
         id="path26" />
    </g>
    <g
       id="g27">
      <path
         style="opacity:0.133"
         fill="#c1c1c1"
         d="m 283.5,541.5 c -45.164,0.999 -90.497,1.332 -136,1 0,44.333 0,88.667 0,133 -0.999,-44.497 -1.332,-89.164 -1,-134 45.667,0 91.333,0 137,0 z"
         id="path27" />
    </g>
    <g
       id="g28">
      <path
         style="opacity:0.572"
         fill="#b1b1b1"
         d="m 4469.5,541.5 c -45.16,0.999 -90.5,1.332 -136,1 0,44.333 0,88.667 0,133 -1,-44.497 -1.33,-89.164 -1,-134 45.67,0 91.33,0 137,0 z"
         id="path28" />
    </g>
    <g
       id="g29">
      <path
         style="opacity:1"
         fill="#e53f29"
         d="m 2029.5,588.5 c -4.32,5.655 -8.99,10.988 -14,16 0.08,-2.429 1.08,-4.429 3,-6 -0.75,-1.236 -1.08,-2.57 -1,-4 2,-0.333 4,-0.667 6,-1 0,-1.333 0,-2.667 0,-4 1,0 2,0 3,0 0,-1 0,-2 0,-3 1.68,-0.215 2.68,0.452 3,2 z"
         id="path29" />
    </g>
    <g
       id="g30">
      <path
         style="opacity:0.894"
         fill="#ea7666"
         d="m 3005.5,609.5 c 0.07,1.527 -0.59,2.527 -2,3 -0.07,-1.527 0.59,-2.527 2,-3 z"
         id="path30" />
    </g>
    <g
       id="g31">
      <path
         style="opacity:0.937"
         fill="#df5e52"
         d="m 1827.5,641.5 c -2.73,1.698 -5.73,3.031 -9,4 -0.61,-0.124 -0.94,-0.457 -1,-1 3.2,-1.399 6.53,-2.399 10,-3 z"
         id="path31" />
    </g>
    <g
       id="g32">
      <path
         style="opacity:0.839"
         fill="#de6758"
         d="m 2946.5,645.5 c -2.18,1.734 -4.85,2.734 -8,3 -0.61,-0.124 -0.94,-0.457 -1,-1 2.95,-0.771 5.95,-1.438 9,-2 z"
         id="path32" />
    </g>
    <g
       id="g33">
      <path
         style="opacity:1"
         fill="#e7442e"
         d="m 1954.5,677.5 c -5.25,7.922 -11.59,14.922 -19,21 -0.14,-1.762 0.19,-3.429 1,-5 -1,-0.667 -2,-1.333 -3,-2 1.76,-1.254 3.26,-0.921 4.5,1 0.48,-0.948 0.65,-1.948 0.5,-3 1,0 2,0 3,0 0.14,-1.762 -0.19,-3.429 -1,-5 1.85,-1.33 3.35,-0.997 4.5,1 2.36,-2.423 4.36,-5.09 6,-8 0.33,0.667 0.67,1.333 1,2 0.22,-1.438 0.72,-2.771 1.5,-4 0.8,0.457 1.13,1.124 1,2 z"
         id="path33" />
    </g>
    <g
       id="g34">
      <path
         style="opacity:1"
         fill="#e8573f"
         d="m 3045.5,717.5 c -1.44,1.563 -3.11,2.896 -5,4 -0.64,-1.96 -0.64,-3.793 0,-5.5 0.67,-0.667 1.33,-0.667 2,0 -1.21,0.893 -1.21,1.726 0,2.5 0.92,-0.627 1.92,-0.961 3,-1 z"
         id="path34" />
    </g>
    <g
       id="g35">
      <path
         style="opacity:0.643"
         fill="#de6861"
         d="m 3311.5,718.5 c 1.53,-0.073 2.53,0.594 3,2 -1.53,0.073 -2.53,-0.594 -3,-2 z"
         id="path35" />
    </g>
    <g
       id="g36">
      <path
         style="opacity:1"
         fill="#e2543f"
         d="m 3022.5,731.5 c -2.8,1.905 -5.8,3.571 -9,5 1.61,-3.977 4.61,-5.643 9,-5 z"
         id="path36" />
    </g>
    <g
       id="g37">
      <path
         style="opacity:1"
         fill="#e54834"
         d="m 1880.5,735.5 c -4.36,2.568 -9.02,4.568 -14,6 1.27,-0.979 2.6,-1.979 4,-3 -1.23,-0.781 -2.56,-1.281 -4,-1.5 2.53,-1.422 5.2,-1.755 8,-1 -1,0.333 -2,0.667 -3,1 0.67,0.167 1.33,0.333 2,0.5 2.26,-0.967 4.6,-1.634 7,-2 z"
         id="path37" />
    </g>
    <g
       id="g38">
      <path
         style="opacity:0.478"
         fill="#e87b6b"
         d="m 3012.5,736.5 c -1.28,1.431 -2.95,2.098 -5,2 1.28,-1.431 2.95,-2.098 5,-2 z"
         id="path38" />
    </g>
    <g
       id="g39">
      <path
         style="opacity:0.463"
         fill="#e06f62"
         d="m 1858.5,744.5 c -3,1.777 -6.34,2.777 -10,3 3,-1.777 6.34,-2.777 10,-3 z"
         id="path39" />
    </g>
    <g
       id="g40">
      <path
         style="opacity:0.463"
         fill="#df6f65"
         d="m 2992.5,744.5 c -3,1.777 -6.34,2.777 -10,3 3,-1.777 6.34,-2.777 10,-3 z"
         id="path40" />
    </g>
    <g
       id="g41">
      <path
         style="opacity:0.294"
         fill="#e56c60"
         d="m 3372.5,747.5 c 3.98,0.242 7.65,1.242 11,3 -3.98,-0.242 -7.65,-1.242 -11,-3 z"
         id="path41" />
    </g>
    <g
       id="g42">
      <path
         style="opacity:0.925"
         fill="#e26a56"
         d="m 1840.5,750.5 c -2.31,0.493 -4.64,0.826 -7,1 2.15,-2.034 4.49,-2.367 7,-1 z"
         id="path42" />
    </g>
    <g
       id="g43">
      <path
         style="opacity:1"
         fill="#e15642"
         d="m 3384.5,751.5 c 0.77,-0.647 1.77,-0.98 3,-1 3.66,0.582 7.32,1.082 11,1.5 4.69,0.362 9.02,1.529 13,3.5 -9.02,-1.225 -18.02,-2.559 -27,-4 z"
         id="path43" />
    </g>
  </g>
</svg>
