<?xml version="1.0" encoding="UTF-8"?>
<!DOCTYPE svg PUBLIC "-//W3C//DTD SVG 1.1//EN" "http://www.w3.org/Graphics/SVG/1.1/DTD/svg11.dtd">
<svg xmlns="http://www.w3.org/2000/svg" version="1.1" width="5580px" height="1013px" style="shape-rendering:geometricPrecision; text-rendering:geometricPrecision; image-rendering:optimizeQuality; fill-rule:evenodd; clip-rule:evenodd" xmlns:xlink="http://www.w3.org/1999/xlink">
<g><path style="opacity:0.997" fill="#e42312" d="M 2932.5,219.5 C 2935.02,220.254 2937.69,220.92 2940.5,221.5C 2941.11,221.376 2941.44,221.043 2941.5,220.5C 2950.33,221.019 2959,222.353 2967.5,224.5C 2970.24,227.133 2973.41,228.133 2977,227.5C 2978.03,229.145 2979.2,229.478 2980.5,228.5C 2981.19,229.025 2981.69,229.692 2982,230.5C 2982.72,229.549 2983.55,229.383 2984.5,230C 2983.3,230.654 2983.3,231.154 2984.5,231.5C 2985.29,231.069 2986.13,230.735 2987,230.5C 2990.4,231.956 2993.9,232.956 2997.5,233.5C 2997.83,233.5 2998.17,233.5 2998.5,233.5C 3000.29,235.566 3002.46,237.232 3005,238.5C 3005.67,237.748 3006.5,237.414 3007.5,237.5C 3009.43,239.293 3011.76,240.293 3014.5,240.5C 3045.16,254.49 3070.83,274.824 3091.5,301.5C 3091.43,303.027 3092.09,304.027 3093.5,304.5C 3121.48,337.481 3149.48,370.481 3177.5,403.5C 3207.81,367.187 3238.48,331.187 3269.5,295.5C 3270.91,295.027 3271.57,294.027 3271.5,292.5C 3289.35,271.97 3310.35,255.637 3334.5,243.5C 3338.84,243.163 3342.5,241.496 3345.5,238.5C 3351.97,234.674 3358.97,232.007 3366.5,230.5C 3367.82,230.33 3368.99,230.663 3370,231.5C 3370.61,229.519 3371.61,229.185 3373,230.5C 3376.27,228.311 3379.77,226.644 3383.5,225.5C 3393.58,223.04 3403.92,221.207 3414.5,220C 3469.5,219.5 3524.5,219.333 3579.5,219.5C 3579.5,255.5 3579.5,291.5 3579.5,327.5C 3528.5,327.333 3477.5,327.5 3426.5,328C 3411.07,329.024 3396.4,332.857 3382.5,339.5C 3380.97,339.427 3379.97,340.094 3379.5,341.5C 3371.28,346.87 3363.45,352.87 3356,359.5C 3319.8,402.074 3283.97,444.907 3248.5,488C 3249.65,489.981 3250.98,491.814 3252.5,493.5C 3252.43,495.027 3253.09,496.027 3254.5,496.5C 3288.84,536.016 3322.68,576.016 3356,616.5C 3375.59,635.485 3399.09,645.985 3426.5,648C 3477.5,648.5 3528.5,648.667 3579.5,648.5C 3579.5,684.5 3579.5,720.5 3579.5,756.5C 3523.49,756.804 3467.49,756.471 3411.5,755.5C 3407.52,753.529 3403.19,752.362 3398.5,752C 3394.82,751.582 3391.16,751.082 3387.5,750.5C 3386.27,750.52 3385.27,750.853 3384.5,751.5C 3383.83,751.5 3383.5,751.167 3383.5,750.5C 3380.15,748.742 3376.48,747.742 3372.5,747.5C 3351.43,741.936 3332.1,732.936 3314.5,720.5C 3314.03,719.094 3313.03,718.427 3311.5,718.5C 3296.08,708.599 3282.25,696.599 3270,682.5C 3239.33,645.662 3208.49,608.995 3177.5,572.5C 3145.19,611.313 3112.69,649.98 3080,688.5C 3069.51,699.506 3058.01,709.172 3045.5,717.5C 3044.42,717.539 3043.42,717.873 3042.5,718.5C 3041.29,717.726 3041.29,716.893 3042.5,716C 3041.83,715.333 3041.17,715.333 3040.5,716C 3039.86,717.707 3039.86,719.54 3040.5,721.5C 3034.8,725.353 3028.8,728.686 3022.5,731.5C 3018.11,730.857 3015.11,732.523 3013.5,736.5C 3013.17,736.5 3012.83,736.5 3012.5,736.5C 3010.45,736.402 3008.78,737.069 3007.5,738.5C 3002.88,741.266 2997.88,743.266 2992.5,744.5C 2988.84,744.723 2985.5,745.723 2982.5,747.5C 2967.68,752.362 2952.34,755.195 2936.5,756C 2882.83,756.5 2829.17,756.667 2775.5,756.5C 2775.5,720.5 2775.5,684.5 2775.5,648.5C 2829.51,648.799 2883.51,648.465 2937.5,647.5C 2937.56,648.043 2937.89,648.376 2938.5,648.5C 2941.65,648.234 2944.32,647.234 2946.5,645.5C 2968.72,639.923 2987.72,628.923 3003.5,612.5C 3004.91,612.027 3005.57,611.027 3005.5,609.5C 3024.8,585.237 3044.8,561.57 3065.5,538.5C 3066.91,538.027 3067.57,537.027 3067.5,535.5C 3080.25,519.247 3093.58,503.413 3107.5,488C 3072.33,446.167 3037.17,404.333 3002,362.5C 2994.52,354.834 2986.35,348.167 2977.5,342.5C 2977.03,341.094 2976.03,340.427 2974.5,340.5C 2963.98,335.439 2952.98,331.772 2941.5,329.5C 2941.08,328.778 2940.42,328.278 2939.5,328C 2936.18,327.502 2932.85,327.335 2929.5,327.5C 2878.17,327.5 2826.83,327.5 2775.5,327.5C 2775.5,291.5 2775.5,255.5 2775.5,219.5C 2827.83,219.5 2880.17,219.5 2932.5,219.5 Z"/></g>
<g><path style="opacity:0.267" fill="#dd958c" d="M 2932.5,219.5 C 2935.61,219.264 2938.61,219.597 2941.5,220.5C 2941.44,221.043 2941.11,221.376 2940.5,221.5C 2937.69,220.92 2935.02,220.254 2932.5,219.5 Z"/></g>
<g><path style="opacity:0.741" fill="#d76b5f" d="M 2290.5,219.5 C 2287.67,220.343 2284.67,221.009 2281.5,221.5C 2280.58,221.457 2279.92,221.124 2279.5,220.5C 2283.06,219.577 2286.73,219.244 2290.5,219.5 Z"/></g>
<g><path style="opacity:0.999" fill="#e42412" d="M 2290.5,219.5 C 2342.17,219.5 2393.83,219.5 2445.5,219.5C 2445.5,255.5 2445.5,291.5 2445.5,327.5C 2394.5,327.333 2343.5,327.5 2292.5,328C 2260.41,330.295 2234.24,343.795 2214,368.5C 2152.64,442.024 2091.14,515.357 2029.5,588.5C 2029.18,586.952 2028.18,586.285 2026.5,586.5C 2026.5,587.5 2026.5,588.5 2026.5,589.5C 2025.5,589.5 2024.5,589.5 2023.5,589.5C 2023.5,590.833 2023.5,592.167 2023.5,593.5C 2021.5,593.833 2019.5,594.167 2017.5,594.5C 2017.42,595.93 2017.75,597.264 2018.5,598.5C 2016.58,600.071 2015.58,602.071 2015.5,604.5C 1995.54,629.131 1975.2,653.465 1954.5,677.5C 1954.63,676.624 1954.3,675.957 1953.5,675.5C 1952.72,676.729 1952.22,678.062 1952,679.5C 1951.67,678.833 1951.33,678.167 1951,677.5C 1949.36,680.41 1947.36,683.077 1945,685.5C 1943.85,683.503 1942.35,683.17 1940.5,684.5C 1941.31,686.071 1941.64,687.738 1941.5,689.5C 1940.5,689.5 1939.5,689.5 1938.5,689.5C 1938.65,690.552 1938.48,691.552 1938,692.5C 1936.76,690.579 1935.26,690.246 1933.5,691.5C 1934.5,692.167 1935.5,692.833 1936.5,693.5C 1935.69,695.071 1935.36,696.738 1935.5,698.5C 1919.38,714.064 1901.05,726.397 1880.5,735.5C 1878.1,735.866 1875.76,736.533 1873.5,737.5C 1872.83,737.333 1872.17,737.167 1871.5,737C 1872.5,736.667 1873.5,736.333 1874.5,736C 1871.7,735.245 1869.03,735.578 1866.5,737C 1867.94,737.219 1869.27,737.719 1870.5,738.5C 1869.1,739.521 1867.77,740.521 1866.5,741.5C 1864.11,743.02 1861.44,744.02 1858.5,744.5C 1854.84,744.723 1851.5,745.723 1848.5,747.5C 1846.02,748.795 1843.35,749.795 1840.5,750.5C 1837.99,749.133 1835.65,749.466 1833.5,751.5C 1823.34,753.896 1813.01,755.396 1802.5,756C 1748.83,756.5 1695.17,756.667 1641.5,756.5C 1641.5,720.5 1641.5,684.5 1641.5,648.5C 1692.83,648.667 1744.17,648.5 1795.5,648C 1802.93,647.372 1810.27,646.205 1817.5,644.5C 1817.56,645.043 1817.89,645.376 1818.5,645.5C 1821.77,644.531 1824.77,643.198 1827.5,641.5C 1843.42,634.946 1857.25,625.28 1869,612.5C 1956,508.5 2043,404.5 2130,300.5C 2160.75,263.035 2199.58,238.035 2246.5,225.5C 2248.95,226.645 2251.29,226.312 2253.5,224.5C 2253.83,224.5 2254.17,224.5 2254.5,224.5C 2257.85,224.665 2261.18,224.498 2264.5,224C 2266.07,223.392 2267.4,222.558 2268.5,221.5C 2272.15,221.058 2275.82,220.724 2279.5,220.5C 2279.92,221.124 2280.58,221.457 2281.5,221.5C 2284.67,221.009 2287.67,220.343 2290.5,219.5 Z"/></g>
<g><path style="opacity:1" fill="#de503c" d="M 2268.5,221.5 C 2267.4,222.558 2266.07,223.392 2264.5,224C 2261.18,224.498 2257.85,224.665 2254.5,224.5C 2258.99,223.266 2263.66,222.266 2268.5,221.5 Z"/></g>
<g><path style="opacity:0.99" fill="#e32312" d="M 2554.5,219.5 C 2591.83,219.5 2629.17,219.5 2666.5,219.5C 2666.5,398.5 2666.5,577.5 2666.5,756.5C 2629.17,756.5 2591.83,756.5 2554.5,756.5C 2554.5,577.5 2554.5,398.5 2554.5,219.5 Z"/></g>
<g><path style="opacity:0.898" fill="#e16c5d" d="M 2253.5,224.5 C 2251.29,226.312 2248.95,226.645 2246.5,225.5C 2248.81,225.007 2251.14,224.674 2253.5,224.5 Z"/></g>
<g><path style="opacity:1" fill="#e24936" d="M 2967.5,224.5 C 2977.96,226.323 2987.96,229.323 2997.5,233.5C 2993.9,232.956 2990.4,231.956 2987,230.5C 2986.13,230.735 2985.29,231.069 2984.5,231.5C 2983.3,231.154 2983.3,230.654 2984.5,230C 2983.55,229.383 2982.72,229.549 2982,230.5C 2981.69,229.692 2981.19,229.025 2980.5,228.5C 2979.2,229.478 2978.03,229.145 2977,227.5C 2973.41,228.133 2970.24,227.133 2967.5,224.5 Z"/></g>
<g><path style="opacity:1" fill="#8b8b8b" d="M 740.5,229.5 C 787.238,228.013 831.238,238.18 872.5,260C 886.786,268.609 899.619,279.109 911,291.5C 920.979,305.025 923.979,320.025 920,336.5C 909.268,361.124 890.435,371.624 863.5,368C 860.107,367.202 856.774,366.202 853.5,365C 839.331,356.414 824.997,348.081 810.5,340C 741.026,314.743 681.526,329.577 632,384.5C 593.894,433.354 582.227,488.02 597,548.5C 614.596,609.096 653.43,648.929 713.5,668C 752.544,677.881 789.544,672.881 824.5,653C 835.306,644.262 847.306,637.595 860.5,633C 888.631,627.48 908.464,637.646 920,663.5C 924.504,681.992 920.504,698.326 908,712.5C 878.331,740.752 843.164,758.586 802.5,766C 698.637,781.166 612.471,749.333 544,670.5C 483.714,592.468 468.38,506.135 498,411.5C 533.001,321.166 597.168,262.999 690.5,237C 707.104,233.063 723.771,230.563 740.5,229.5 Z"/></g>
<g><path style="opacity:0.999" fill="#8b8b8b" d="M 1270.5,229.5 C 1362.22,230.109 1436.38,266.442 1493,338.5C 1537.5,402.166 1553.5,472.499 1541,549.5C 1521.08,644.408 1466.91,711.574 1378.5,751C 1279.8,786.995 1189.8,771.995 1108.5,706C 1041.41,645.269 1010.58,569.435 1016,478.5C 1027.2,374.214 1079.7,299.047 1173.5,253C 1204.55,239.32 1236.88,231.486 1270.5,229.5 Z M 1267.5,327.5 C 1339.27,325.446 1390.77,356.446 1422,420.5C 1442.67,473.503 1442.67,526.503 1422,579.5C 1389.94,645.462 1337.1,676.295 1263.5,672C 1194.51,661.346 1150.01,622.513 1130,555.5C 1117.86,509.146 1120.86,463.813 1139,419.5C 1165,365.34 1207.83,334.674 1267.5,327.5 Z"/></g>
<g><path style="opacity:1" fill="#e24f3e" d="M 3383.5,225.5 C 3379.77,226.644 3376.27,228.311 3373,230.5C 3371.61,229.185 3370.61,229.519 3370,231.5C 3368.99,230.663 3367.82,230.33 3366.5,230.5C 3371.78,227.854 3377.45,226.187 3383.5,225.5 Z"/></g>
<g><path style="opacity:0.996" fill="#8b8b8b" d="M 4749.5,232.5 C 4763.67,232.167 4776.33,236.333 4787.5,245C 4794.07,250.904 4799.91,257.404 4805,264.5C 4866.66,376.489 4928.83,488.156 4991.5,599.5C 5054.75,486.005 5118.25,372.672 5182,259.5C 5193.79,243.773 5209.45,234.773 5229,232.5C 5254.62,234.784 5270.28,248.45 5276,273.5C 5276.67,423.167 5276.67,572.833 5276,722.5C 5266.38,755.457 5244.55,769.957 5210.5,766C 5187.28,758.068 5174.11,741.902 5171,717.5C 5170.34,632.113 5170.34,546.779 5171,461.5C 5124.51,549.818 5077.51,637.818 5030,725.5C 5012.36,745.786 4991.53,749.953 4967.5,738C 4960.33,733.5 4954.5,727.667 4950,720.5C 4903.72,634.262 4857.72,547.929 4812,461.5C 4811.99,550.543 4811.32,639.543 4810,728.5C 4798.59,759.291 4776.75,771.458 4744.5,765C 4724.44,757.608 4712.27,743.441 4708,722.5C 4707.33,572.5 4707.33,422.5 4708,272.5C 4712.9,249.762 4726.74,236.429 4749.5,232.5 Z"/></g>
<g><path style="opacity:0.994" fill="#8b8b8b" d="M 147.5,324.5 C 146.501,368.33 146.168,412.33 146.5,456.5C 192.167,456.5 237.833,456.5 283.5,456.5C 309.251,459.085 323.585,473.251 326.5,499C 323.575,524.758 309.242,538.925 283.5,541.5C 237.833,541.5 192.167,541.5 146.5,541.5C 146.168,586.336 146.501,631.003 147.5,675.5C 220.834,675.333 294.167,675.5 367.5,676C 390.414,682.081 403.081,696.914 405.5,720.5C 402.62,745.879 388.62,760.712 363.5,765C 274.167,765.667 184.833,765.667 95.5,765C 67.8232,761.325 50.9899,745.825 45,718.5C 44.3333,572.833 44.3333,427.167 45,281.5C 50.0576,256.776 64.8909,241.609 89.5,236C 179.833,235.333 270.167,235.333 360.5,236C 386.016,243.203 398.183,260.036 397,286.5C 392.576,306.59 380.41,319.09 360.5,324C 289.501,324.5 218.501,324.667 147.5,324.5 Z"/></g>
<g><path style="opacity:1" fill="#e24f3e" d="M 2998.5,233.5 C 3001.91,234.075 3004.91,235.408 3007.5,237.5C 3006.5,237.414 3005.67,237.748 3005,238.5C 3002.46,237.232 3000.29,235.566 2998.5,233.5 Z"/></g>
<g><path style="opacity:0.998" fill="#8b8b8b" d="M 3748.5,235.5 C 3859.83,235.333 3971.17,235.5 4082.5,236C 4108.19,244.036 4120.02,261.536 4118,288.5C 4113.17,308 4101,320.167 4081.5,325C 4043.17,325.5 4004.83,325.667 3966.5,325.5C 3966.67,458.5 3966.5,591.5 3966,724.5C 3960.07,751.936 3943.24,767.269 3915.5,770.5C 3886.32,767.493 3869.16,751.493 3864,722.5C 3863.5,590.167 3863.33,457.834 3863.5,325.5C 3825.5,325.667 3787.5,325.5 3749.5,325C 3721.7,317.221 3709.53,299.055 3713,270.5C 3718.79,252.545 3730.62,240.879 3748.5,235.5 Z"/></g>
<g><path style="opacity:0.992" fill="#8b8b8b" d="M 4469.5,541.5 C 4423.83,541.5 4378.17,541.5 4332.5,541.5C 4332.17,586.336 4332.5,631.003 4333.5,675.5C 4406.83,675.333 4480.17,675.5 4553.5,676C 4576.44,682.108 4589.11,696.941 4591.5,720.5C 4588.8,745.367 4575.14,760.2 4550.5,765C 4460.83,765.667 4371.17,765.667 4281.5,765C 4252,760.83 4235.16,743.997 4231,714.5C 4230.33,571.833 4230.33,429.167 4231,286.5C 4232.94,267.096 4242.11,252.262 4258.5,242C 4263.95,239.405 4269.62,237.405 4275.5,236C 4366.17,235.333 4456.83,235.333 4547.5,236C 4573.43,244.043 4585.26,261.543 4583,288.5C 4577.83,307 4566,318.833 4547.5,324C 4476.17,324.5 4404.83,324.667 4333.5,324.5C 4333.5,368.167 4333.5,411.833 4333.5,455.5C 4379.17,455.333 4424.83,455.5 4470.5,456C 4489.96,458.308 4503.46,468.474 4511,486.5C 4515.65,512.365 4505.82,530.199 4481.5,540C 4477.58,541.156 4473.58,541.656 4469.5,541.5 Z"/></g>
<g><path style="opacity:0.827" fill="#e26a60" d="M 3007.5,237.5 C 3010.24,237.707 3012.57,238.707 3014.5,240.5C 3011.76,240.293 3009.43,239.293 3007.5,237.5 Z"/></g>
<g><path style="opacity:1" fill="#de4c39" d="M 3345.5,238.5 C 3342.5,241.496 3338.84,243.163 3334.5,243.5C 3337.74,241.049 3341.41,239.382 3345.5,238.5 Z"/></g>
<g><path style="opacity:0.875" fill="#e37364" d="M 3271.5,292.5 C 3271.57,294.027 3270.91,295.027 3269.5,295.5C 3269.43,293.973 3270.09,292.973 3271.5,292.5 Z"/></g>
<g><path style="opacity:0.682" fill="#e58270" d="M 3091.5,301.5 C 3092.91,301.973 3093.57,302.973 3093.5,304.5C 3092.09,304.027 3091.43,303.027 3091.5,301.5 Z"/></g>
<g><path style="opacity:0.659" fill="#e27564" d="M 2929.5,327.5 C 2932.85,327.335 2936.18,327.502 2939.5,328C 2940.42,328.278 2941.08,328.778 2941.5,329.5C 2937.34,329.044 2933.34,328.378 2929.5,327.5 Z"/></g>
<g><path style="opacity:0.008" fill="#e88f81" d="M 3382.5,339.5 C 3382.03,340.906 3381.03,341.573 3379.5,341.5C 3379.97,340.094 3380.97,339.427 3382.5,339.5 Z"/></g>
<g><path style="opacity:0.384" fill="#e0716b" d="M 2974.5,340.5 C 2976.03,340.427 2977.03,341.094 2977.5,342.5C 2975.97,342.573 2974.97,341.906 2974.5,340.5 Z"/></g>
<g><path style="opacity:0.114" fill="#bfbfbf" d="M 147.5,324.5 C 147.5,368.167 147.5,411.833 147.5,455.5C 193.003,455.168 238.336,455.501 283.5,456.5C 237.833,456.5 192.167,456.5 146.5,456.5C 146.168,412.33 146.501,368.33 147.5,324.5 Z"/></g>
<g><path style="opacity:0.82" fill="#ec8378" d="M 3252.5,493.5 C 3253.91,493.973 3254.57,494.973 3254.5,496.5C 3253.09,496.027 3252.43,495.027 3252.5,493.5 Z"/></g>
<g><path style="opacity:0.827" fill="#ed816c" d="M 3067.5,535.5 C 3067.57,537.027 3066.91,538.027 3065.5,538.5C 3065.43,536.973 3066.09,535.973 3067.5,535.5 Z"/></g>
<g><path style="opacity:0.133" fill="#c1c1c1" d="M 283.5,541.5 C 238.336,542.499 193.003,542.832 147.5,542.5C 147.5,586.833 147.5,631.167 147.5,675.5C 146.501,631.003 146.168,586.336 146.5,541.5C 192.167,541.5 237.833,541.5 283.5,541.5 Z"/></g>
<g><path style="opacity:0.572" fill="#b1b1b1" d="M 4469.5,541.5 C 4424.34,542.499 4379,542.832 4333.5,542.5C 4333.5,586.833 4333.5,631.167 4333.5,675.5C 4332.5,631.003 4332.17,586.336 4332.5,541.5C 4378.17,541.5 4423.83,541.5 4469.5,541.5 Z"/></g>
<g><path style="opacity:1" fill="#e53f29" d="M 2029.5,588.5 C 2025.18,594.155 2020.51,599.488 2015.5,604.5C 2015.58,602.071 2016.58,600.071 2018.5,598.5C 2017.75,597.264 2017.42,595.93 2017.5,594.5C 2019.5,594.167 2021.5,593.833 2023.5,593.5C 2023.5,592.167 2023.5,590.833 2023.5,589.5C 2024.5,589.5 2025.5,589.5 2026.5,589.5C 2026.5,588.5 2026.5,587.5 2026.5,586.5C 2028.18,586.285 2029.18,586.952 2029.5,588.5 Z"/></g>
<g><path style="opacity:0.894" fill="#ea7666" d="M 3005.5,609.5 C 3005.57,611.027 3004.91,612.027 3003.5,612.5C 3003.43,610.973 3004.09,609.973 3005.5,609.5 Z"/></g>
<g><path style="opacity:0.937" fill="#df5e52" d="M 1827.5,641.5 C 1824.77,643.198 1821.77,644.531 1818.5,645.5C 1817.89,645.376 1817.56,645.043 1817.5,644.5C 1820.7,643.101 1824.03,642.101 1827.5,641.5 Z"/></g>
<g><path style="opacity:0.839" fill="#de6758" d="M 2946.5,645.5 C 2944.32,647.234 2941.65,648.234 2938.5,648.5C 2937.89,648.376 2937.56,648.043 2937.5,647.5C 2940.45,646.729 2943.45,646.062 2946.5,645.5 Z"/></g>
<g><path style="opacity:1" fill="#e7442e" d="M 1954.5,677.5 C 1949.25,685.422 1942.91,692.422 1935.5,698.5C 1935.36,696.738 1935.69,695.071 1936.5,693.5C 1935.5,692.833 1934.5,692.167 1933.5,691.5C 1935.26,690.246 1936.76,690.579 1938,692.5C 1938.48,691.552 1938.65,690.552 1938.5,689.5C 1939.5,689.5 1940.5,689.5 1941.5,689.5C 1941.64,687.738 1941.31,686.071 1940.5,684.5C 1942.35,683.17 1943.85,683.503 1945,685.5C 1947.36,683.077 1949.36,680.41 1951,677.5C 1951.33,678.167 1951.67,678.833 1952,679.5C 1952.22,678.062 1952.72,676.729 1953.5,675.5C 1954.3,675.957 1954.63,676.624 1954.5,677.5 Z"/></g>
<g><path style="opacity:1" fill="#e8573f" d="M 3045.5,717.5 C 3044.06,719.063 3042.39,720.396 3040.5,721.5C 3039.86,719.54 3039.86,717.707 3040.5,716C 3041.17,715.333 3041.83,715.333 3042.5,716C 3041.29,716.893 3041.29,717.726 3042.5,718.5C 3043.42,717.873 3044.42,717.539 3045.5,717.5 Z"/></g>
<g><path style="opacity:0.643" fill="#de6861" d="M 3311.5,718.5 C 3313.03,718.427 3314.03,719.094 3314.5,720.5C 3312.97,720.573 3311.97,719.906 3311.5,718.5 Z"/></g>
<g><path style="opacity:1" fill="#e2543f" d="M 3022.5,731.5 C 3019.7,733.405 3016.7,735.071 3013.5,736.5C 3015.11,732.523 3018.11,730.857 3022.5,731.5 Z"/></g>
<g><path style="opacity:1" fill="#e54834" d="M 1880.5,735.5 C 1876.14,738.068 1871.48,740.068 1866.5,741.5C 1867.77,740.521 1869.1,739.521 1870.5,738.5C 1869.27,737.719 1867.94,737.219 1866.5,737C 1869.03,735.578 1871.7,735.245 1874.5,736C 1873.5,736.333 1872.5,736.667 1871.5,737C 1872.17,737.167 1872.83,737.333 1873.5,737.5C 1875.76,736.533 1878.1,735.866 1880.5,735.5 Z"/></g>
<g><path style="opacity:0.478" fill="#e87b6b" d="M 3012.5,736.5 C 3011.22,737.931 3009.55,738.598 3007.5,738.5C 3008.78,737.069 3010.45,736.402 3012.5,736.5 Z"/></g>
<g><path style="opacity:0.463" fill="#e06f62" d="M 1858.5,744.5 C 1855.5,746.277 1852.16,747.277 1848.5,747.5C 1851.5,745.723 1854.84,744.723 1858.5,744.5 Z"/></g>
<g><path style="opacity:0.463" fill="#df6f65" d="M 2992.5,744.5 C 2989.5,746.277 2986.16,747.277 2982.5,747.5C 2985.5,745.723 2988.84,744.723 2992.5,744.5 Z"/></g>
<g><path style="opacity:0.294" fill="#e56c60" d="M 3372.5,747.5 C 3376.48,747.742 3380.15,748.742 3383.5,750.5C 3379.52,750.258 3375.85,749.258 3372.5,747.5 Z"/></g>
<g><path style="opacity:0.925" fill="#e26a56" d="M 1840.5,750.5 C 1838.19,750.993 1835.86,751.326 1833.5,751.5C 1835.65,749.466 1837.99,749.133 1840.5,750.5 Z"/></g>
<g><path style="opacity:1" fill="#e15642" d="M 3384.5,751.5 C 3385.27,750.853 3386.27,750.52 3387.5,750.5C 3391.16,751.082 3394.82,751.582 3398.5,752C 3403.19,752.362 3407.52,753.529 3411.5,755.5C 3402.48,754.275 3393.48,752.941 3384.5,751.5 Z"/></g>
</svg>
