<?xml version="1.0" encoding="UTF-8"?>
<svg width="249px" height="45px" viewBox="0 0 249 45" version="1.1" xmlns="http://www.w3.org/2000/svg" xmlns:xlink="http://www.w3.org/1999/xlink">
    <title>SIX Group</title>
    <g id="Phytax-logo" stroke="none" stroke-width="1" fill="none" fill-rule="evenodd">
        <g id="Artboard-Copy-6" transform="translate(-34, -29)">
            <g id="SIX-Group" transform="translate(34, 29)">
                <path d="M95.8747711,13.2029988 C97.6210175,11.1224814 100.240387,9.8 103.167918,9.8 L109.7,9.8 L109.7,14.5604665 L103.167918,14.5604665 C101.704152,14.5604665 100.394468,15.220541 99.5213445,16.2607997 L87.8252289,30.1993336 C86.0789825,32.279851 83.4619474,33.6 80.5320821,33.6 L74,33.6 L74,28.8418659 L80.5320821,28.8418659 C81.9958475,28.8418659 83.3031978,28.1817915 84.1786555,27.1415327 L95.8747711,13.2029988 Z" id="Path" fill="#E42313" fill-rule="nonzero"></path>
                <rect id="Rectangle" fill="#E42313" fill-rule="nonzero" x="114.6" y="9.8" width="4.9" height="23.8"></rect>
                <path d="M138.226133,13.2029988 L142.251167,18.000784 L146.276202,13.2029988 C148.022562,11.1224814 150.642103,9.8 153.569825,9.8 L160.1,9.8 L160.1,14.5604665 L153.569825,14.5604665 C152.105964,14.5604665 150.796194,15.220541 149.923014,16.2607997 L145.356327,21.7 L149.923014,27.1392003 C150.796194,28.179459 152.10363,28.8395335 153.569825,28.8395335 L160.1,28.8395335 L160.1,33.6 L153.569825,33.6 C150.642103,33.6 148.022562,32.279851 146.276202,30.1993336 L142.251167,25.4038808 L138.226133,30.1993336 C136.479772,32.279851 133.860232,33.6 130.932509,33.6 L124.4,33.6 L124.4,28.8418659 L130.932509,28.8418659 C132.39637,28.8418659 133.703806,28.1817915 134.576986,27.1415327 L139.141338,21.7023324 L134.576986,16.2607997 C133.703806,15.220541 132.394036,14.5604665 130.932509,14.5604665 L124.4,14.5604665 L124.4,9.8 L130.932509,9.8 C133.857897,9.8 136.479772,11.1224814 138.226133,13.2029988" id="Path" fill="#E42313" fill-rule="nonzero"></path>
                <text id="ECO" font-family="VisbyRoundCF-Bold, Visby Round CF" font-size="33.6" font-weight="bold" letter-spacing="2" fill="#8B8B8B">
                    <tspan x="0" y="34">ECO</tspan>
                </text>
                <text id="TEM" font-family="VisbyRoundCF-Bold, Visby Round CF" font-size="33.6" font-weight="bold" letter-spacing="2" fill="#8B8B8B">
                    <tspan x="165" y="34">TEM</tspan>
                </text>
            </g>
        </g>
    </g>
</svg>