<svg xmlns="http://www.w3.org/2000/svg" width="37" height="37"><path d="M1.483 4.838C1.14 6.441 1 8.574 1 10.038c0 12.035 7.224 19.976 18.247 19.976 5.309 0 8.47-2.273 10.151-4.064 1.23 1.822 1.868 3.69 2.662 6.197.265.81.856 1.199 1.541 1.199 1.323 0 2.398-1.152 2.398-2.678 0-2.226-3.27-6.119-4.951-7.676-7.131-6.633-17.905-2.569-20.443-9.606-.171-.436.296-.716.654-.358 5.434 5.854 12.782 1.043 19.431 7.131.732.654 1.635.358 1.775-.436.078-.436.125-1.152.125-1.899 0-7.691-5.278-11.817-13.281-11.817-2.6 0-5.636.685-7.972.685-2.429 0-5.185-.156-7.473-2.522-.856-.872-2.086-.623-2.382.669z" fill="#232323" fill-rule="evenodd"/></svg>
