<svg xmlns="http://www.w3.org/2000/svg" width="37" height="37"><path d="M18.494 29.608C29.102 29.608 36 21.085 36 18.5c0-2.598-6.91-11.108-17.506-11.108C8.051 7.392 1 15.902 1 18.5c0 2.585 7.051 11.108 17.494 11.108zm.013-4.338c-3.775 0-6.808-3.097-6.821-6.77 0-3.775 3.046-6.77 6.821-6.77 3.75 0 6.808 3.007 6.808 6.77 0 3.673-3.059 6.77-6.808 6.77zm-.013-4.108c1.472 0 2.675-1.203 2.675-2.649a2.69 2.69 0 0 0-2.675-2.675 2.68 2.68 0 0 0-2.662 2.675c0 1.446 1.19 2.649 2.662 2.649z" fill="#232323" fill-rule="evenodd"/></svg>
