<svg xmlns="http://www.w3.org/2000/svg" width="37" height="37"><path
  d="M18.471 36c.6 0 1.054-.481 1.054-1.118v-2.561c4.785-.357 8.473-3.151 8.473-7.885 0-3.958-2.371-6.239-7.58-7.543l-.893-.217V7.907c2.268.295 3.834 1.614 4.537 3.818.351.916.937 1.366 1.785 1.366 1.054 0 1.654-.667 1.654-1.692 0-.295-.044-.605-.132-.916-.82-3.197-3.805-5.51-7.844-5.851V2.133c0-.636-.454-1.133-1.054-1.133-.585 0-1.039.497-1.039 1.133v2.483c-4.741.388-8.034 3.368-8.034 7.652 0 3.834 2.385 6.146 7.317 7.388l.717.186v9.204c-2.663-.295-4.376-1.676-4.99-3.973-.322-.9-.893-1.397-1.756-1.397-1.083 0-1.683.729-1.683 1.8a3.45 3.45 0 0 0 .132.9c.863 3.368 4.098 5.619 8.298 5.945v2.561c0 .636.454 1.118 1.039 1.118zm-5.502-24.011c0-2.018 1.624-3.741 4.463-4.082v8.242c-3.029-.792-4.463-2.08-4.463-4.16zm11.458 12.774c0 2.499-1.815 4.035-4.902 4.299v-8.707c3.512.885 4.902 2.064 4.902 4.408z" fill="#232323" fill-rule="evenodd"/></svg>
