<svg xmlns="http://www.w3.org/2000/svg" width="37" height="37"><path d="M18.509 18.266c2.068 0 3.759-1.811 3.759-4.118 0-2.243-1.71-4.035-3.759-4.035s-3.768 1.811-3.759 4.044c0 2.298 1.691 4.108 3.759 4.108zm-10.699.202c1.801 0 3.272-1.581 3.272-3.585 0-1.958-1.489-3.511-3.272-3.511s-3.281 1.572-3.281 3.52c.009 1.994 1.48 3.575 3.281 3.575zm21.379 0c1.801 0 3.272-1.581 3.272-3.575.009-1.949-1.489-3.52-3.272-3.52s-3.281 1.553-3.281 3.511c0 2.004 1.48 3.585 3.281 3.585zm-26.36 8.419h6.737c-1.02-1.434-.101-4.191 2.114-5.974-.983-.607-2.307-1.057-3.87-1.057C3.766 19.856 1 22.834 1 25.242c0 1.039.469 1.645 1.829 1.645zm31.333 0c1.36 0 1.838-.607 1.838-1.645 0-2.408-2.767-5.386-6.811-5.386-1.572 0-2.886.45-3.87 1.057 2.215 1.783 3.134 4.54 2.114 5.974zm-21.314 0h11.314c1.618 0 2.16-.533 2.16-1.443 0-2.353-3.051-5.57-7.813-5.57-4.77 0-7.822 3.217-7.822 5.57 0 .91.542 1.443 2.16 1.443z" fill="#232323" fill-rule="evenodd"/></svg>
